<?xml version="1.0" standalone="no"?>
<!DOCTYPE svg PUBLIC "-//W3C//DTD SVG 20010904//EN"
 "http://www.w3.org/TR/2001/REC-SVG-20010904/DTD/svg10.dtd">
<svg version="1.0" xmlns="http://www.w3.org/2000/svg"
 width="260.000000pt" height="260.000000pt" viewBox="0 0 260.000000 260.000000"
 preserveAspectRatio="xMidYMid meet">
<metadata>
Created by potrace 1.14, written by Peter Selinger 2001-2017
</metadata>
<g transform="translate(0.000000,260.000000) scale(0.100000,-0.100000)"
fill="#000000" stroke="none">
<path d="M223 2383 c-23 -4 -53 -38 -53 -59 0 -7 8 -22 18 -33 13 -17 33 -24
87 -29 l70 -7 0 -685 0 -685 -65 -5 c-82 -6 -103 -18 -103 -59 0 -59 6 -60
345 -61 l307 0 3 -220 c2 -121 2 -225 0 -230 -2 -6 -29 -10 -60 -10 -31 0 -68
-6 -82 -13 -31 -16 -39 -61 -14 -88 16 -18 34 -19 275 -19 286 0 293 2 287 64
-5 46 -34 56 -170 56 l-118 0 0 230 0 230 28 6 c118 26 175 53 264 120 41 31
60 40 65 31 4 -7 31 -64 59 -127 l50 -115 74 0 74 0 215 503 c119 276 220 501
226 499 7 -3 10 -229 10 -688 l0 -684 -126 -5 c-86 -3 -131 -9 -142 -19 -24
-19 -22 -78 2 -91 12 -6 118 -10 274 -10 233 0 255 1 270 18 21 23 22 52 3 77
-11 15 -30 20 -85 23 l-71 4 0 689 0 689 50 0 c62 0 106 34 95 73 -14 44 -29
48 -204 45 l-164 -3 -207 -485 c-126 -296 -212 -485 -220 -485 -8 0 -33 45
-57 100 -42 96 -43 101 -28 125 42 65 96 189 112 259 23 97 26 434 5 521 -20
81 -93 227 -157 312 -62 83 -121 132 -212 177 -125 62 -143 65 -543 67 -201 1
-375 0 -387 -3z m870 -165 c123 -59 224 -179 289 -343 31 -78 32 -85 36 -267
5 -211 -7 -288 -57 -393 l-29 -60 -29 65 c-16 36 -80 181 -143 323 l-114 257
-163 0 c-150 0 -165 -2 -183 -20 -25 -25 -25 -41 -2 -70 14 -17 32 -24 73 -28
30 -2 56 -8 59 -12 3 -5 4 -184 2 -399 l-2 -391 -180 0 -180 0 0 691 0 690
273 -3 272 -3 78 -37z m22 -861 c115 -258 135 -311 124 -323 -27 -33 -141
-106 -193 -125 -106 -37 -96 -75 -96 369 0 214 3 392 7 396 4 3 10 3 14 -1 5
-5 69 -147 144 -316z"/>
</g>
</svg>
